# xmcd CD database file
#
# Track frame offsets:
#	150
#	5431
#	16414
#	34666
#	52969
#	76618
#	101754
#	112430
#	117201
#	147562
#	152352
#	172303
#	198494
#
# Disc length: 2794 seconds
#
# Revision: 3
# Processed by: cddbd v1.5.2PL0 Copyright (c) Steve Scherf et al.
# Submitted via: CDex 1.70beta2
#
DISCID=aa0ae80d
DTITLE=Ambra - Honour and Glory Disc
DYEAR=2002
DGENRE=New Age
TTITLE0=From Dawn
TTITLE1=Spirit Of Silence
TTITLE2=Signs Of Love
TTITLE3=Walking In The Air
TTITLE4=Dark Ages
TTITLE5=Into The Deep
TTITLE6=Interlude
TTITLE7=Paradise Lost
TTITLE8=Metamorphosis Part I
TTITLE9=Inner World
TTITLE10=Metamorphosis Part II
TTITLE11=Honour and Glory
TTITLE12=The Eye Of The Storm
EXTD=YEAR: 2002
EXTT0=
EXTT1=
EXTT2=
EXTT3=
EXTT4=
EXTT5=
EXTT6=
EXTT7=
EXTT8=
EXTT9=
EXTT10=
EXTT11=
EXTT12=
PLAYORDER=
